<svg width="74" height="68" viewBox="0 0 74 68" fill="none" xmlns="http://www.w3.org/2000/svg">
<g clip-path="url(#clip0_111_278)">
<path d="M37.0417 40.0293V50.0862C37.0417 50.236 37.0395 50.3858 37.0361 50.5356C36.7869 60.1012 28.5932 67.7842 18.5209 67.7842C8.44851 67.7842 0 59.8598 0 50.0862C0 49.8018 0.00676602 49.5184 0.0214257 49.2371L9.03151 42.6833V49.8384C9.03151 54.9148 13.3392 59.0301 18.6517 59.0301H18.7532C24.0667 59.0301 28.3733 54.9148 28.3733 49.8384V46.3342L34.8089 41.6532L37.0417 40.0293Z" fill="url(#paint0_linear_111_278)"/>
<path d="M48.9738 67.9999C52.0941 67.9999 54.6235 65.5828 54.6235 62.6013C54.6235 59.6197 52.0941 57.2026 48.9738 57.2026C45.8536 57.2026 43.3242 59.6197 43.3242 62.6013C43.3242 65.5828 45.8536 67.9999 48.9738 67.9999Z" fill="url(#paint1_linear_111_278)"/>
<path d="M65.4004 4.90078C65.3745 4.87923 65.3485 4.85768 65.3214 4.83613C64.69 4.32967 64.0325 3.85985 63.3503 3.42883C63.3322 3.41697 63.3131 3.40512 63.295 3.39434C60.0609 1.36205 56.2899 0.19504 52.2619 0.19504C52.2281 0.19504 52.1942 0.19504 52.1604 0.196118H52.157C52.157 0.196118 52.1514 0.19504 52.1491 0.19504H5.05422C2.26211 0.19504 0 2.35772 0 5.02578V12.9039H9.13413V9.16365H28.3733V39.4994L31.3571 37.3292L33.7974 35.5544L37.0417 33.1945L40.9671 30.339L47.811 25.3617L52.669 21.8283L62.5801 14.6194C62.5857 14.6248 62.5902 14.6312 62.5925 14.6366C63.6672 16.1323 64.4678 17.8683 64.9144 19.7562C65.1805 20.8757 65.3214 22.0503 65.3214 23.2593C65.3214 30.5771 60.1533 36.5932 53.5418 37.2861V28.0276L44.5058 34.5997L44.4043 34.674V52.788H53.5418V46.4357C64.9516 45.731 74 35.6589 74 23.3358V0L65.4004 4.90078ZM52.669 11.1981L39.3918 20.8553L37.0417 22.5643V9.16365H52.669V9.17119C53.4764 9.19705 54.2658 9.30373 55.0303 9.48045L52.669 11.1981Z" fill="url(#paint2_linear_111_278)"/>
</g>
<defs>
<linearGradient id="paint0_linear_111_278" x1="18.5209" y1="40.0293" x2="18.5209" y2="67.7842" gradientUnits="userSpaceOnUse">
<stop stop-color="#8A9B77"/>
<stop offset="1" stop-color="#3F502D"/>
</linearGradient>
<linearGradient id="paint1_linear_111_278" x1="48.9738" y1="57.2026" x2="48.9738" y2="67.9999" gradientUnits="userSpaceOnUse">
<stop stop-color="#8A9B77"/>
<stop offset="1" stop-color="#3F502D"/>
</linearGradient>
<linearGradient id="paint2_linear_111_278" x1="37" y1="0" x2="37" y2="52.788" gradientUnits="userSpaceOnUse">
<stop stop-color="#8A9B77"/>
<stop offset="1" stop-color="#3F502D"/>
</linearGradient>
<clipPath id="clip0_111_278">
<rect width="74" height="68" fill="white"/>
</clipPath>
</defs>
</svg>
